<?xml version="1.0" encoding="UTF-8" standalone="no"?>
<!-- Created with Inkscape (http://www.inkscape.org/) -->

<svg
   version="1.1"
   id="svg2"
   xml:space="preserve"
   width="971.70264"
   height="112.89667"
   viewBox="0 0 971.70262 112.89667"
   xmlns="http://www.w3.org/2000/svg"
   xmlns:svg="http://www.w3.org/2000/svg"><defs
     id="defs6"><clipPath
       clipPathUnits="userSpaceOnUse"
       id="clipPath16"><path
         d="M 0,595.276 H 841.89 V 0 H 0 Z"
         id="path14" /></clipPath><clipPath
       clipPathUnits="userSpaceOnUse"
       id="clipPath118"><path
         d="m 136.922,26.793 h 566.045 v 97.102 H 136.922 Z"
         id="path116" /></clipPath><clipPath
       clipPathUnits="userSpaceOnUse"
       id="clipPath138"><path
         d="M 0,595.276 H 841.89 V 0 H 0 Z"
         id="path136" /></clipPath></defs><g
     id="g8"
     transform="matrix(1.3333333,0,0,-1.3333333,-75.408265,522.63252)"><g
       id="g12"
       clip-path="url(#clipPath16)"><g
         id="g18"
         transform="translate(66.5962,322.8801)"><path
           d="m 0,0 v 0 c -5.545,0 -10.04,4.495 -10.04,10.04 0,5.544 4.495,10.039 10.04,10.039 5.544,0 10.04,-4.495 10.04,-10.039 C 10.04,4.495 5.544,0 0,0"
           style="fill:#f6a800;fill-opacity:1;fill-rule:nonzero;stroke:none"
           id="path20" /></g><g
         id="g22"
         transform="translate(66.5962,357.4275)"><path
           d="m 0,0 v 0 c -5.545,0 -10.04,4.495 -10.04,10.04 0,5.544 4.495,10.039 10.04,10.039 5.544,0 10.04,-4.495 10.04,-10.039 C 10.04,4.495 5.544,0 0,0"
           style="fill:#6cc5e9;fill-opacity:1;fill-rule:nonzero;stroke:none"
           id="path24" /></g><g
         id="g26"
         transform="translate(369.834,389.7971)"><path
           d="M 0,0 -0.004,0.005 C -1.161,1.423 -2.688,2.173 -4.421,2.173 H -46.45 v -56.912 c 0,-9.297 2.485,-16.152 7.386,-20.377 4.819,-4.159 11.924,-6.268 21.117,-6.268 h 5.734 c 1.774,0 3.316,0.743 4.458,2.149 1.066,1.313 1.606,2.878 1.606,4.652 0,1.77 -0.54,3.334 -1.609,4.657 -1.129,1.383 -2.642,2.124 -4.407,2.143 l -5.782,-0.003 c -5.348,0 -9.046,0.94 -10.993,2.793 -1.923,1.828 -2.897,5.278 -2.897,10.254 v 43.393 h 27.416 c 1.759,0 3.287,0.737 4.419,2.13 1.056,1.3 1.591,2.851 1.591,4.61 C 1.589,-2.854 1.055,-1.303 0,0"
           style="fill:#323e48;fill-opacity:1;fill-rule:nonzero;stroke:none"
           id="path28" /></g><g
         id="g30"
         transform="translate(660.0527,388.9914)"><path
           d="m 0,0 -0.005,0.004 c -1.141,1.401 -2.648,2.141 -4.359,2.141 h -41.49 v -56.182 c 0,-9.177 2.453,-15.945 7.291,-20.116 4.756,-4.106 11.77,-6.187 20.845,-6.187 h 5.661 c 1.751,0 3.273,0.733 4.401,2.121 1.052,1.296 1.586,2.841 1.586,4.593 0,1.746 -0.534,3.291 -1.589,4.596 -1.114,1.366 -2.609,2.098 -4.35,2.116 l -5.709,-0.003 c -5.278,0 -8.929,0.928 -10.851,2.758 -1.898,1.805 -2.861,5.21 -2.861,10.122 v 42.836 h 27.066 c 1.735,0 3.244,0.727 4.361,2.103 1.043,1.284 1.571,2.815 1.571,4.55 C 1.568,-2.817 1.041,-1.287 0,0"
           style="fill:#323e48;fill-opacity:1;fill-rule:nonzero;stroke:none"
           id="path32" /></g><g
         id="g34"
         transform="translate(154.3462,382.3703)"><path
           d="m 0,0 c -3.039,2.983 -6.654,5.355 -10.744,7.048 -4.096,1.696 -8.479,2.556 -13.028,2.556 h -0.183 c -4.549,0 -8.933,-0.86 -13.029,-2.556 -4.089,-1.693 -7.704,-4.065 -10.742,-7.047 -3.039,-2.978 -5.468,-6.473 -7.221,-10.388 -1.764,-3.941 -2.658,-8.144 -2.658,-12.493 v -45.16 c 0,-3.263 2.654,-5.918 5.917,-5.918 h 2.616 c 3.264,0 5.919,2.655 5.919,5.918 l 0.015,46.351 c 0,2.439 0.512,4.788 1.522,6.981 1.017,2.213 2.413,4.16 4.148,5.786 1.736,1.627 3.791,2.933 6.107,3.878 2.3,0.938 4.822,1.413 7.497,1.413 2.675,0 5.197,-0.475 7.496,-1.412 2.316,-0.946 4.372,-2.251 6.109,-3.879 1.735,-1.626 3.13,-3.573 4.149,-5.788 1.009,-2.192 1.521,-4.541 1.521,-6.979 l 0.015,-46.351 c 0,-3.263 2.655,-5.918 5.918,-5.918 H 3.96 c 3.264,0 5.918,2.655 5.918,5.918 v 45.16 c 0,4.348 -0.895,8.551 -2.659,12.492 C 5.466,-6.473 3.038,-2.978 0,0"
           style="fill:#323e48;fill-opacity:1;fill-rule:nonzero;stroke:none"
           id="path36" /></g><g
         id="g38"
         transform="translate(467.8623,349.9968)"><path
           d="m 0,0 c 0,5.703 -1.036,10.973 -3.073,15.893 -2.036,4.917 -4.886,9.261 -8.469,12.913 -3.579,3.654 -7.783,6.574 -12.493,8.683 -4.724,2.116 -9.765,3.188 -14.982,3.188 h -20.521 c -4.381,0 -7.945,-3.564 -7.945,-7.946 0,-4.378 3.564,-7.944 7.939,-7.947 l 21.453,-0.016 c 3.476,-0.005 6.655,-0.653 9.453,-1.93 2.862,-1.306 5.379,-3.104 7.481,-5.345 2.079,-2.219 3.746,-4.842 4.954,-7.802 1.198,-2.942 1.806,-6.165 1.806,-9.577 0,-3.415 -0.608,-6.635 -1.806,-9.577 -1.205,-2.954 -2.872,-5.58 -4.954,-7.804 -2.095,-2.237 -4.613,-4.033 -7.475,-5.342 -2.8,-1.279 -5.976,-1.928 -9.443,-1.933 l -21.466,-0.017 c -4.378,-10e-4 -7.942,-3.566 -7.942,-7.945 0,-4.382 3.566,-7.946 7.949,-7.946 h 20.517 c 5.217,0 10.258,1.072 14.979,3.189 4.71,2.106 8.913,5.027 12.493,8.678 v 10e-4 c 3.586,3.652 6.436,7.998 8.472,12.916 C -1.036,-10.746 0,-5.476 0,0"
           style="fill:#323e48;fill-opacity:1;fill-rule:nonzero;stroke:none"
           id="path40" /></g><g
         id="g42"
         transform="translate(563.9414,349.5222)"><path
           d="m 0,0 c -4.376,0 -7.942,-3.562 -7.949,-7.94 l -0.01,-16.137 -13.887,0.01 c -3.469,0.005 -6.649,0.652 -9.45,1.929 -2.865,1.305 -5.379,3.102 -7.481,5.346 -2.085,2.226 -3.752,4.851 -4.953,7.802 -1.2,2.932 -1.807,6.155 -1.807,9.576 0,3.419 0.607,6.643 1.803,9.579 1.205,2.953 2.875,5.579 4.957,7.802 2.102,2.242 4.616,4.038 7.475,5.343 2.8,1.278 5.977,1.927 9.443,1.932 l 21.465,0.016 c 4.379,0.002 7.943,3.567 7.943,7.946 0,4.382 -3.567,7.947 -7.948,7.947 h -20.518 c -5.217,0 -10.259,-1.071 -14.981,-3.19 -4.714,-2.107 -8.915,-5.028 -12.491,-8.678 -3.583,-3.653 -6.435,-7.997 -8.475,-12.917 -2.037,-4.922 -3.07,-10.192 -3.07,-15.666 0,-5.699 1.033,-10.97 3.07,-15.893 2.04,-4.916 4.888,-9.261 8.471,-12.912 3.583,-3.655 7.788,-6.577 12.495,-8.684 4.722,-2.114 9.764,-3.186 14.981,-3.186 H 1.212 c 2.797,0 5.288,1.895 6.061,4.611 0.172,0.608 0.26,1.15 0.266,1.661 0.283,2.086 0.41,3.712 0.41,5.239 V -7.945 C 7.949,-3.563 4.382,0 0,0"
           style="fill:#323e48;fill-opacity:1;fill-rule:nonzero;stroke:none"
           id="path44" /></g><g
         id="g46"
         transform="translate(313.394,317.6921)"><path
           d="m 0,0 c -0.007,0.024 -0.017,0.047 -0.025,0.071 -0.037,0.101 -0.077,0.201 -0.12,0.301 -0.163,0.418 -0.361,0.82 -0.626,1.193 l -22.42,31.266 21.933,30.349 c 0.065,0.096 0.109,0.184 0.169,0.278 l 0.082,0.097 c 1.077,1.541 1.357,3.323 0.806,5.153 -0.512,1.707 -1.568,3.109 -3.136,4.167 -1.565,1.054 -3.276,1.519 -5.084,1.378 h -0.007 c -1.974,-0.16 -3.578,-1.047 -4.64,-2.565 l -0.042,-0.077 c -0.184,-0.199 -0.354,-0.407 -0.497,-0.632 l -19.06,-27.385 -0.002,0.002 V 43.59 l -0.004,0.004 -19.06,27.385 c -0.143,0.225 -0.313,0.433 -0.498,0.632 l -0.041,0.077 c -1.062,1.518 -2.666,2.405 -4.641,2.565 h -0.006 c -1.809,0.141 -3.52,-0.324 -5.084,-1.378 -1.568,-1.058 -2.624,-2.46 -3.137,-4.167 -0.55,-1.83 -0.271,-3.612 0.807,-5.153 l 0.082,-0.097 c 0.059,-0.094 0.104,-0.182 0.168,-0.278 L -42.15,32.831 -64.569,1.565 c -0.266,-0.373 -0.464,-0.775 -0.626,-1.193 -0.044,-0.1 -0.083,-0.2 -0.121,-0.301 C -65.324,0.047 -65.333,0.024 -65.34,0 c -0.419,-1.169 -0.45,-2.426 -0.064,-3.709 0.512,-1.708 1.568,-3.109 3.136,-4.167 1.565,-1.055 3.276,-1.519 5.084,-1.379 l 0.007,0.001 c 1.974,0.16 3.578,1.047 4.64,2.565 l 0.042,0.067 c 0.103,0.132 0.198,0.265 0.281,0.393 l 19.542,27.986 0.003,0.003 v -0.004 l 10e-4,0.001 19.542,-27.986 c 0.083,-0.128 0.177,-0.261 0.28,-0.393 l 0.042,-0.067 c 1.062,-1.518 2.666,-2.405 4.64,-2.565 l 0.007,-0.001 c 1.809,-0.14 3.52,0.324 5.084,1.379 1.569,1.058 2.624,2.459 3.137,4.167 C 0.45,-2.426 0.419,-1.169 0,0"
           style="fill:#323e48;fill-opacity:1;fill-rule:nonzero;stroke:none"
           id="path48" /></g><g
         id="g50"
         transform="translate(188.2026,361.0764)"><path
           d="m 0,0 c 0,2.403 0.504,4.716 1.5,6.876 1.003,2.183 2.377,4.101 4.087,5.702 1.708,1.602 3.734,2.889 6.017,3.821 2.268,0.924 4.753,1.393 7.388,1.393 2.839,0 5.448,-0.517 7.757,-1.533 2.319,-1.023 4.335,-2.426 5.991,-4.171 1.667,-1.754 2.974,-3.757 3.885,-5.955 0.901,-2.174 1.359,-4.454 1.359,-6.777 0,-1.506 -0.296,-2.556 -0.813,-2.88 -0.367,-0.23 -1.656,-0.767 -5.693,-0.767 L 0,-4.291 Z m 35.345,-17.014 c 1.804,0 3.633,0.086 5.432,0.256 2.054,0.192 3.886,0.818 5.444,1.859 1.589,1.06 2.881,2.637 3.842,4.686 1.035,2.206 1.404,6.285 1.404,9.367 0,4.625 -0.913,8.947 -2.715,12.848 -1.793,3.871 -4.197,7.241 -7.147,10.017 -2.946,2.773 -6.432,4.97 -10.357,6.53 -3.924,1.558 -8.078,2.349 -12.347,2.349 -4.491,0 -8.819,-0.849 -12.863,-2.523 -4.039,-1.673 -7.608,-4.015 -10.606,-6.959 -3,-2.94 -5.399,-6.391 -7.129,-10.256 -1.742,-3.89 -2.626,-8.04 -2.626,-12.335 v -18.417 c 0,-4.959 0.942,-9.528 2.796,-13.58 1.85,-4.053 4.465,-7.578 7.772,-10.478 3.287,-2.884 7.255,-5.133 11.793,-6.684 4.496,-1.538 9.479,-2.318 14.81,-2.318 3.963,0 7.559,0.455 10.725,1.208 7.662,1.821 13.531,5.992 13.531,5.992 2.422,1.621 3.573,4.771 2.119,7.393 l -1.166,2.102 c -1.454,2.623 -4.771,3.573 -7.393,2.118 l -6.142,-3.406 c -1.1,-0.536 -2.383,-1.039 -3.834,-1.498 -1.898,-0.599 -4.425,-0.903 -7.511,-0.903 -6.775,0 -12.418,1.8 -16.776,5.349 C 2.094,-30.792 0,-26.144 0,-20.084 v 3.07 z"
           style="fill:#323e48;fill-opacity:1;fill-rule:nonzero;stroke:none"
           id="path52" /></g><g
         id="g54"
         transform="translate(720.1367,338.757)"><path
           d="m 0,0 c 0,-2.403 -0.505,-4.716 -1.5,-6.877 -1.003,-2.183 -2.378,-4.101 -4.088,-5.703 -1.709,-1.602 -3.734,-2.889 -6.018,-3.822 -2.268,-0.923 -4.754,-1.392 -7.389,-1.392 -2.839,0 -5.449,0.516 -7.758,1.533 -2.32,1.023 -4.336,2.426 -5.992,4.171 -1.668,1.755 -2.975,3.758 -3.885,5.956 -0.902,2.175 -1.36,4.454 -1.36,6.779 0,1.505 0.297,2.555 0.813,2.879 0.367,0.231 1.656,0.767 5.694,0.767 H 0 Z m -35.351,17.016 c -1.804,0 -3.632,-0.086 -5.433,-0.255 -2.054,-0.193 -3.886,-0.819 -5.444,-1.859 -1.589,-1.061 -2.881,-2.638 -3.843,-4.688 -1.035,-2.205 -1.405,-6.285 -1.405,-9.368 0,-4.625 0.913,-8.948 2.716,-12.85 1.794,-3.871 4.198,-7.242 7.148,-10.017 2.947,-2.775 6.433,-4.972 10.36,-6.533 3.924,-1.558 8.078,-2.348 12.348,-2.348 4.492,0 8.82,0.849 12.865,2.523 4.04,1.673 7.609,4.015 10.607,6.96 3,2.94 5.4,6.392 7.13,10.258 1.742,3.89 2.626,8.041 2.626,12.337 v 18.419 c 0,4.96 -0.941,9.53 -2.796,13.582 -1.849,4.053 -4.465,7.579 -7.773,10.48 -3.287,2.884 -7.255,5.134 -11.794,6.685 -4.497,1.538 -9.481,2.318 -14.813,2.318 -3.963,0 -7.56,-0.455 -10.726,-1.208 -7.664,-1.821 -13.534,-5.994 -13.534,-5.994 -2.422,-1.621 -3.573,-4.771 -2.118,-7.394 l 1.166,-2.102 c 1.455,-2.623 4.772,-3.573 7.394,-2.118 l 6.142,3.406 c 1.1,0.537 2.384,1.04 3.835,1.499 1.899,0.599 4.426,0.902 7.512,0.902 6.776,0 12.42,-1.799 16.779,-5.349 C -2.095,30.797 0,26.147 0,20.088 v -3.072 z"
           style="fill:#323e48;fill-opacity:1;fill-rule:nonzero;stroke:none"
           id="path56" /></g><g
         id="g58"
         transform="translate(743.7002,391.9699)"><path
           d="m 0,0 v -57.143 c 0,-9.604 2.567,-16.686 7.63,-21.05 4.978,-4.297 12.318,-6.475 21.814,-6.475 h 5.924 c 1.833,0 3.426,0.767 4.606,2.22 1.1,1.356 1.659,2.973 1.659,4.805 0,1.829 -0.558,3.445 -1.662,4.811 -1.166,1.429 -2.73,2.195 -4.552,2.214 l -5.975,-0.003 c -5.523,0 -9.343,0.971 -11.355,2.886 -1.986,1.888 -2.993,5.452 -2.993,10.592 V 0 Z"
           style="fill:#323e48;fill-opacity:1;fill-rule:nonzero;stroke:none"
           id="path60" /></g><g
         id="g62"
         transform="translate(494.5947,318.154)"><path
           d="m 0,0 v 66.269 c 0,4.168 -3.38,7.547 -7.548,7.547 -4.169,0 -7.548,-3.379 -7.548,-7.547 V 0 c 0,-5.275 3.379,-9.551 7.548,-9.551 C -3.38,-9.551 0,-5.275 0,0"
           style="fill:#323e48;fill-opacity:1;fill-rule:nonzero;stroke:none"
           id="path64" /></g><g
         id="g66"
         transform="translate(598.9619,318.154)"><path
           d="m 0,0 v 66.269 c 0,4.168 -3.379,7.547 -7.547,7.547 -4.169,0 -7.548,-3.379 -7.548,-7.547 V 0 c 0,-5.275 3.379,-9.551 7.548,-9.551 C -3.379,-9.551 0,-5.275 0,0"
           style="fill:#323e48;fill-opacity:1;fill-rule:nonzero;stroke:none"
           id="path68" /></g><g
         id="g76"
         transform="translate(147.4106,51.3303)" /><g
         id="g80"
         transform="translate(333.77,51.3303)" /><g
         id="g84"
         transform="translate(526.5459,51.3303)" /><g
         id="g88"
         transform="translate(147.4106,121.7395)" /><g
         id="g92"
         transform="translate(333.77,121.7395)" /><g
         id="g96"
         transform="translate(526.5459,121.7395)" /><g
         id="g100"
         transform="translate(231.4932,30.1984)" /><g
         id="g104"
         transform="translate(417.8525,30.1984)" /><g
         id="g108"
         transform="translate(610.6289,30.1984)" /></g><g
       id="g112"><g
         id="g114"
         clip-path="url(#clipPath118)"><g
           id="g120"
           transform="translate(147.4106,26.924)" /><g
           id="g124"
           transform="translate(333.77,26.924)" /><g
           id="g128"
           transform="translate(526.5459,26.924)" /></g></g></g></svg>
