<svg xmlns="http://www.w3.org/2000/svg" xml:space="preserve" width="971.703" height="112.897"><defs><clipPath id="a" clipPathUnits="userSpaceOnUse"><path d="M0 595.276h841.89V0H0Z"/></clipPath><clipPath id="b" clipPathUnits="userSpaceOnUse"><path d="M136.922 26.793h566.045v97.102H136.922Z"/></clipPath></defs><g clip-path="url(#a)" transform="matrix(1.33333 0 0 -1.33333 -75.408 522.633)"><path d="M0 0c-5.545 0-10.04 4.495-10.04 10.04 0 5.544 4.495 10.039 10.04 10.039 5.544 0 10.04-4.495 10.04-10.039C10.04 4.495 5.544 0 0 0" style="fill:#f6a800;fill-opacity:1;fill-rule:nonzero;stroke:none" transform="translate(66.596 322.88)"/><path d="M0 0c-5.545 0-10.04 4.495-10.04 10.04 0 5.544 4.495 10.039 10.04 10.039 5.544 0 10.04-4.495 10.04-10.039C10.04 4.495 5.544 0 0 0" style="fill:#6cc5e9;fill-opacity:1;fill-rule:nonzero;stroke:none" transform="translate(66.596 357.428)"/><path d="m0 0-.004.005c-1.157 1.418-2.684 2.168-4.417 2.168H-46.45v-56.912c0-9.297 2.485-16.152 7.386-20.377 4.819-4.159 11.924-6.268 21.117-6.268h5.734c1.774 0 3.316.743 4.458 2.149 1.066 1.313 1.606 2.878 1.606 4.652 0 1.77-.54 3.334-1.609 4.657-1.129 1.383-2.642 2.124-4.407 2.143l-5.782-.003c-5.348 0-9.046.94-10.993 2.793-1.923 1.828-2.897 5.278-2.897 10.254v43.393h27.416c1.759 0 3.287.737 4.419 2.13 1.056 1.3 1.591 2.851 1.591 4.61C1.589-2.854 1.055-1.303 0 0" style="fill:#323e48;fill-opacity:1;fill-rule:nonzero;stroke:none" transform="translate(369.834 389.797)"/><path d="m0 0-.005.004c-1.141 1.401-2.648 2.141-4.359 2.141h-41.49v-56.182c0-9.177 2.453-15.945 7.291-20.116 4.756-4.106 11.77-6.187 20.845-6.187h5.661c1.751 0 3.273.733 4.401 2.121 1.052 1.296 1.586 2.841 1.586 4.593 0 1.746-.534 3.291-1.589 4.596-1.114 1.366-2.609 2.098-4.35 2.116l-5.709-.003c-5.278 0-8.929.928-10.851 2.758-1.898 1.805-2.861 5.21-2.861 10.122v42.836h27.066c1.735 0 3.244.727 4.361 2.103 1.043 1.284 1.571 2.815 1.571 4.55C1.568-2.817 1.041-1.287 0 0" style="fill:#323e48;fill-opacity:1;fill-rule:nonzero;stroke:none" transform="translate(660.053 388.991)"/><path d="M0 0c-3.039 2.983-6.654 5.355-10.744 7.048-4.096 1.696-8.479 2.556-13.028 2.556h-.183c-4.549 0-8.933-.86-13.029-2.556-4.089-1.693-7.704-4.065-10.742-7.047a33.836 33.836 0 0 1-7.221-10.388 30.379 30.379 0 0 1-2.658-12.493v-45.16a5.924 5.924 0 0 1 5.917-5.918h2.616a5.925 5.925 0 0 1 5.919 5.918l.015 46.351c0 2.439.512 4.788 1.522 6.981a18.426 18.426 0 0 0 4.148 5.786c1.736 1.627 3.791 2.933 6.107 3.878 2.3.938 4.822 1.413 7.497 1.413s5.197-.475 7.496-1.412c2.316-.946 4.372-2.251 6.109-3.879A18.447 18.447 0 0 0-6.11-14.71a16.575 16.575 0 0 0 1.521-6.979l.015-46.351a5.925 5.925 0 0 1 5.918-5.918H3.96a5.924 5.924 0 0 1 5.918 5.918v45.16c0 4.348-.895 8.551-2.659 12.492A33.847 33.847 0 0 1 0 0" style="fill:#323e48;fill-opacity:1;fill-rule:nonzero;stroke:none" transform="translate(154.346 382.37)"/><path d="M0 0c0 5.703-1.036 10.973-3.073 15.893-2.036 4.917-4.886 9.261-8.469 12.913a40.667 40.667 0 0 1-12.493 8.683 36.41 36.41 0 0 1-14.982 3.188h-20.521c-4.381 0-7.945-3.564-7.945-7.946 0-4.378 3.564-7.944 7.939-7.947l21.453-.016c3.476-.005 6.655-.653 9.453-1.93 2.862-1.306 5.379-3.104 7.481-5.345 2.079-2.219 3.746-4.842 4.954-7.802 1.198-2.942 1.806-6.165 1.806-9.577 0-3.415-.608-6.635-1.806-9.577-1.205-2.954-2.872-5.58-4.954-7.804-2.095-2.237-4.613-4.033-7.475-5.342-2.8-1.279-5.976-1.928-9.443-1.933l-21.466-.017c-4.378-.001-7.942-3.566-7.942-7.945 0-4.382 3.566-7.946 7.949-7.946h20.517a36.37 36.37 0 0 1 14.979 3.189 40.664 40.664 0 0 1 12.493 8.678v.001c3.586 3.652 6.436 7.998 8.472 12.916C-1.036-10.746 0-5.476 0 0" style="fill:#323e48;fill-opacity:1;fill-rule:nonzero;stroke:none" transform="translate(467.862 349.997)"/><path d="M0 0c-4.376 0-7.942-3.562-7.949-7.94l-.01-16.137-13.887.01c-3.469.005-6.649.652-9.45 1.929a23.563 23.563 0 0 0-7.481 5.346c-2.085 2.226-3.752 4.851-4.953 7.802-1.2 2.932-1.807 6.155-1.807 9.576 0 3.419.607 6.643 1.803 9.579 1.205 2.953 2.875 5.579 4.957 7.802a23.627 23.627 0 0 0 7.475 5.343c2.8 1.278 5.977 1.927 9.443 1.932l21.465.016c4.379.002 7.943 3.567 7.943 7.946 0 4.382-3.567 7.947-7.948 7.947h-20.518c-5.217 0-10.259-1.071-14.981-3.19a40.594 40.594 0 0 1-12.491-8.678c-3.583-3.653-6.435-7.997-8.475-12.917-2.037-4.922-3.07-10.192-3.07-15.666 0-5.699 1.033-10.97 3.07-15.893 2.04-4.916 4.888-9.261 8.471-12.912a40.71 40.71 0 0 1 12.495-8.684 36.429 36.429 0 0 1 14.981-3.186H1.212c2.797 0 5.288 1.895 6.061 4.611.172.608.26 1.15.266 1.661.283 2.086.41 3.712.41 5.239v20.519C7.949-3.563 4.382 0 0 0" style="fill:#323e48;fill-opacity:1;fill-rule:nonzero;stroke:none" transform="translate(563.941 349.522)"/><path d="M0 0c-.007.024-.017.047-.025.071a5.89 5.89 0 0 1-.12.301 5.46 5.46 0 0 1-.626 1.193l-22.42 31.266L-1.258 63.18c.065.096.109.184.169.278l.082.097C.07 65.096.35 66.878-.201 68.708c-.512 1.707-1.568 3.109-3.136 4.167-1.565 1.054-3.276 1.519-5.084 1.378h-.007c-1.974-.16-3.578-1.047-4.64-2.565l-.042-.077a4.47 4.47 0 0 1-.497-.632l-19.06-27.385-.002.002v-.006l-.004.004-19.06 27.385a4.406 4.406 0 0 1-.498.632l-.041.077c-1.062 1.518-2.666 2.405-4.641 2.565h-.006c-1.809.141-3.52-.324-5.084-1.378-1.568-1.058-2.624-2.46-3.137-4.167-.55-1.83-.271-3.612.807-5.153l.082-.097c.059-.094.104-.182.168-.278l21.933-30.349-22.419-31.266a5.375 5.375 0 0 1-.626-1.193c-.044-.1-.083-.2-.121-.301-.008-.024-.017-.047-.024-.071-.419-1.169-.45-2.426-.064-3.709.512-1.708 1.568-3.109 3.136-4.167 1.565-1.055 3.276-1.519 5.084-1.379l.007.001c1.974.16 3.578 1.047 4.64 2.565l.042.067c.103.132.198.265.281.393l19.542 27.986.003.003v-.004l.001.001 19.542-27.986c.083-.128.177-.261.28-.393l.042-.067c1.062-1.518 2.666-2.405 4.64-2.565l.007-.001c1.809-.14 3.52.324 5.084 1.379C-1.504-6.818-.449-5.417.064-3.709.45-2.426.419-1.169 0 0" style="fill:#323e48;fill-opacity:1;fill-rule:nonzero;stroke:none" transform="translate(313.394 317.692)"/><path d="M0 0a16.3 16.3 0 0 0 1.5 6.876 18.126 18.126 0 0 0 4.087 5.702c1.708 1.602 3.734 2.889 6.017 3.821 2.268.924 4.753 1.393 7.388 1.393 2.839 0 5.448-.517 7.757-1.533 2.319-1.023 4.335-2.426 5.991-4.171a19.406 19.406 0 0 0 3.885-5.955 17.619 17.619 0 0 0 1.359-6.777c0-1.506-.296-2.556-.813-2.88-.367-.23-1.656-.767-5.693-.767H0Zm35.345-17.014a58 58 0 0 1 5.432.256c2.054.192 3.886.818 5.444 1.859 1.589 1.06 2.881 2.637 3.842 4.686 1.035 2.206 1.404 6.285 1.404 9.367 0 4.625-.913 8.947-2.715 12.848-1.793 3.871-4.197 7.241-7.147 10.017-2.946 2.773-6.432 4.97-10.357 6.53a33.311 33.311 0 0 1-12.347 2.349c-4.491 0-8.819-.849-12.863-2.523-4.039-1.673-7.608-4.015-10.606-6.959a33.4 33.4 0 0 1-7.129-10.256 29.984 29.984 0 0 1-2.626-12.335v-18.417c0-4.959.942-9.528 2.796-13.58 1.85-4.053 4.465-7.578 7.772-10.478 3.287-2.884 7.255-5.133 11.793-6.684 4.496-1.538 9.479-2.318 14.81-2.318 3.963 0 7.559.455 10.725 1.208 7.662 1.821 13.531 5.992 13.531 5.992 2.422 1.621 3.573 4.771 2.119 7.393l-1.166 2.102a5.443 5.443 0 0 1-7.393 2.118l-6.142-3.406c-1.1-.536-2.383-1.039-3.834-1.498-1.898-.599-4.425-.903-7.511-.903-6.775 0-12.418 1.8-16.776 5.349C2.094-30.792 0-26.144 0-20.084v3.07z" style="fill:#323e48;fill-opacity:1;fill-rule:nonzero;stroke:none" transform="translate(188.203 361.076)"/><path d="M0 0c0-2.403-.505-4.716-1.5-6.877a18.144 18.144 0 0 0-4.088-5.703c-1.709-1.602-3.734-2.889-6.018-3.822-2.268-.923-4.754-1.392-7.389-1.392-2.839 0-5.449.516-7.758 1.533-2.32 1.023-4.336 2.426-5.992 4.171a19.386 19.386 0 0 0-3.885 5.956A17.608 17.608 0 0 0-37.99.645c0 1.505.297 2.555.813 2.879.367.231 1.656.767 5.694.767H0Zm-35.351 17.016c-1.804 0-3.632-.086-5.433-.255-2.054-.193-3.886-.819-5.444-1.859-1.589-1.061-2.881-2.638-3.843-4.688-1.035-2.205-1.405-6.285-1.405-9.368 0-4.625.913-8.948 2.716-12.85 1.794-3.871 4.198-7.242 7.148-10.017 2.947-2.775 6.433-4.972 10.36-6.533a33.311 33.311 0 0 1 12.348-2.348c4.492 0 8.82.849 12.865 2.523 4.04 1.673 7.609 4.015 10.607 6.96a33.4 33.4 0 0 1 7.13 10.258 29.99 29.99 0 0 1 2.626 12.337v18.419c0 4.96-.941 9.53-2.796 13.582a30.89 30.89 0 0 1-7.773 10.48C.468 46.541-3.5 48.791-8.039 50.342c-4.497 1.538-9.481 2.318-14.813 2.318-3.963 0-7.56-.455-10.726-1.208-7.664-1.821-13.534-5.994-13.534-5.994-2.422-1.621-3.573-4.771-2.118-7.394l1.166-2.102a5.444 5.444 0 0 1 7.394-2.118l6.142 3.406c1.1.537 2.384 1.04 3.835 1.499 1.899.599 4.426.902 7.512.902 6.776 0 12.42-1.799 16.779-5.349C-2.095 30.797 0 26.147 0 20.088v-3.072z" style="fill:#323e48;fill-opacity:1;fill-rule:nonzero;stroke:none" transform="translate(720.137 338.757)"/><path d="M0 0v-57.143c0-9.604 2.567-16.686 7.63-21.05 4.978-4.297 12.318-6.475 21.814-6.475h5.924c1.833 0 3.426.767 4.606 2.22 1.1 1.356 1.659 2.973 1.659 4.805 0 1.829-.558 3.445-1.662 4.811-1.166 1.429-2.73 2.195-4.552 2.214l-5.975-.003c-5.523 0-9.343.971-11.355 2.886-1.986 1.888-2.993 5.452-2.993 10.592V0Z" style="fill:#323e48;fill-opacity:1;fill-rule:nonzero;stroke:none" transform="translate(743.7 391.97)"/><path d="M0 0v66.269a7.548 7.548 0 0 1-15.096 0V0c0-5.275 3.379-9.551 7.548-9.551C-3.38-9.551 0-5.275 0 0" style="fill:#323e48;fill-opacity:1;fill-rule:nonzero;stroke:none" transform="translate(494.595 318.154)"/><path d="M0 0v66.269a7.547 7.547 0 0 1-15.095 0V0c0-5.275 3.379-9.551 7.548-9.551C-3.379-9.551 0-5.275 0 0" style="fill:#323e48;fill-opacity:1;fill-rule:nonzero;stroke:none" transform="translate(598.962 318.154)"/></g></svg>