<svg xmlns="http://www.w3.org/2000/svg" width="580" height="570" viewBox="0 0 153.458 150.813"><path style="isolation:auto;mix-blend-mode:normal;solid-color:#000;solid-opacity:1" d="M0 0v150.812h159.28V0zm139.53 3.817L135.532 72.9l5.622 27.658-13.62 10.954 19.92 8.949-1.06 8.815-26.574-4.545 23.623 11.718-3.969 8.315L18.9 141.74l-10.584-22.3L22.3 93.738l13.419-5.859-18.143-47.058L2.268 31.94l16.63-24.758zM4.63 35.907l9.45 7.75-11.623 4.818zm10.137 9.134l2.606.333.133 2.406-3.608-1.27zm-2.673 1.603l-3.875 8.352-1.07-4.477zm2.647 1.926l12.095 21.26-9.921-6.047-5.954-7.276zM4.744 58.872l4.143.601 6.414 4.878 1.337 5.479L2.739 71.7zm140.918.4l3.475 4.41-2.673 18.576-7.885-3.876.267-8.018zM18.473 71.32l9.875 1.63-9.095 7.913-4.394-3.425-3.321 3.565-9.161-2.274 1.403-4.268zm6.984 6.127l5.145 2.339s.735 4.009.735 4.343c0 .334-9.087-2.406-9.087-2.406zm-10.022 3.007l7.55 6.347.267.268v3.808l-9.688 6.214-3.34-9.822zm9.97 3.11l6.534 2.237-6.243 4.848zm117.584 19.808l6.014 1.203-.668 12.428-14.834-5.746zm5.522 17.62l3.42.683.268 9.354-4.747-1.222zM7.818 122.347l3.007 6.014-4.878 9.154-1.737-2.205zm125.282 6.148l8.82 1.47 8.553 3.34-.401 6.549zm-121.407 1.47l2.272 5.612-8.085 6.883-.802-1.07zm132.766 7.25l.869.233-2.873 7.417-1.938-.067zm-141.72.367l2.74.6-2.472 6.014-.936-1.202zm12.161 0l3.742 7.617-9.087-4.076zm131.063.2l1.336.735-.869 6.481-2.405.067zM8.285 141.592l2.272 3.14-5.412.601z" color="#000" overflow="visible" fill="#fff"/></svg>